<svg width="24" height="24" viewBox="0 0 24 24" fill="none" xmlns="http://www.w3.org/2000/svg">
<rect width="24" height="24" fill="black"/>
<path fill-rule="evenodd" clip-rule="evenodd" d="M11.4534 9.2351L10.5084 15.0452L17 20.9121L16.0119 22L10.0527 16.6143L8.3926 21.461L7 20.9864L9.00164 15.1426L10.0007 9L11.4534 9.2351Z" fill="white"/>
<path fill-rule="evenodd" clip-rule="evenodd" d="M13.3999 3.38896L12.6922 3.6532C9.6421 4.79199 7.37737 6.68562 6.10324 8.7015C5.39517 9.82178 5.35047 11.212 5.83543 12.3618C6.31744 13.5046 7.28787 14.3409 8.56529 14.4686C8.73846 14.486 8.92109 14.4984 9.11523 14.5064C10.1829 14.5504 11.2254 14.4034 12.136 13.9886C13.4261 13.4009 14.4975 12.5582 15.2527 11.8511C15.5522 11.5708 15.7987 11.3149 15.986 11.1094L15.0227 10.1641L16.0935 9.11322L19 11.9654L17.9292 13.0162L17.0583 12.1617C16.8559 12.3809 16.601 12.6429 16.2981 12.9264C15.47 13.7017 14.2632 14.6579 12.7736 15.3365C11.5889 15.8763 10.2921 16.0423 9.05171 15.9912C8.83161 15.9822 8.61868 15.9678 8.41173 15.9471C6.48468 15.7543 5.09184 14.4847 4.43615 12.9301C3.78341 11.3826 3.82657 9.48408 4.81628 7.9182C6.28247 5.59844 8.82475 3.50713 12.1537 2.26423L12.8614 2L13.3999 3.38896Z" fill="white"/>
</svg>
